<?xml version="1.0" encoding="UTF-8" standalone="no"?>
<!-- Created with Inkscape (http://www.inkscape.org/) -->

<svg
   xmlns:dc="http://purl.org/dc/elements/1.1/"
   xmlns:cc="http://creativecommons.org/ns#"
   xmlns:rdf="http://www.w3.org/1999/02/22-rdf-syntax-ns#"
   xmlns:svg="http://www.w3.org/2000/svg"
   xmlns="http://www.w3.org/2000/svg"
   version="1.1"
   width="64"
   height="64"
   id="svg2985">
  <defs
     id="defs2987" />
  <metadata
     id="metadata2990">
    <rdf:RDF>
      <cc:Work
         rdf:about="">
        <dc:format>image/svg+xml</dc:format>
        <dc:type
           rdf:resource="http://purl.org/dc/dcmitype/StillImage" />
        <dc:title></dc:title>
      </cc:Work>
    </rdf:RDF>
  </metadata>
  <g
     id="layer1">
    <rect
       width="64"
       height="64"
       x="0"
       y="-1.3871627e-006"
       id="rect3009"
       style="fill:#d33682;fill-opacity:1;stroke:none" />
    <g
       transform="matrix(0.01976122,0,0,-0.01976122,7.9011922,57.977285)"
       id="g3841"
       style="fill:#fdf6e3;fill-opacity:1">
      <path
         d="m 5,1181 q 0,191 153,344.5 153,153.5 400,221.5 -32,-94 -32,-187 0,-155 79.5,-294.5 Q 685,1126 820.5,1026 956,926 1144.5,867.5 1333,809 1543,809 q 5,0 15,0.5 10,0.5 14,0.5 Q 1449,700 1268,636 1087,572 880,572 696,572 526,625 L 177,442 q -17,-10 -26,-3 -9,7 -4,26 l 84,308 Q 124,856 64.5,960.5 5,1065 5,1181 z m 703,412 q 0,163 115.5,301 115.5,138 314,218.5 198.5,80.5 433.5,80.5 235,0 433.5,-80.5 198.5,-80.5 314,-218.5 115.5,-138 115.5,-301 0,-114 -58.5,-217.5 Q 2317,1272 2211,1190 l 83,-304 q 5,-18 -3.5,-25 -8.5,-7 -25.5,2 l -345,180 q -171,-51 -349,-51 -235,0 -433.5,80.5 -198.5,80.5 -314,219 Q 708,1430 708,1593 z"
         id="path3843"
         style="fill:#fdf6e3;fill-opacity:1" />
    </g>
  </g>
</svg>
