<?xml version="1.0" encoding="UTF-8" standalone="no"?>
<!-- Created with Inkscape (http://www.inkscape.org/) -->

<svg
   xmlns:dc="http://purl.org/dc/elements/1.1/"
   xmlns:cc="http://creativecommons.org/ns#"
   xmlns:rdf="http://www.w3.org/1999/02/22-rdf-syntax-ns#"
   xmlns:svg="http://www.w3.org/2000/svg"
   xmlns="http://www.w3.org/2000/svg"
   version="1.1"
   width="64"
   height="64"
   id="svg2985">
  <defs
     id="defs2987" />
  <metadata
     id="metadata2990">
    <rdf:RDF>
      <cc:Work
         rdf:about="">
        <dc:format>image/svg+xml</dc:format>
        <dc:type
           rdf:resource="http://purl.org/dc/dcmitype/StillImage" />
        <dc:title></dc:title>
      </cc:Work>
    </rdf:RDF>
  </metadata>
  <g
     id="layer1">
    <rect
       width="64"
       height="64"
       x="0"
       y="-1.3871627e-006"
       id="rect3009"
       style="fill:#859900;fill-opacity:1;stroke:none" />
    <g
       transform="matrix(0.02057437,0,0,-0.02057437,8.3497617,56.180193)"
       id="g3827"
       style="fill:#fdf6e3;fill-opacity:1">
      <path
         d="m -17,1076.5 q 0,20.5 14,35.5 l 325,325 q 14,14 35,14 21,0 35,-14 l 391,-391 q 15,-15 35.5,-15 20.5,0 35.5,15 l 1049,1049 q 14,14 35.5,14.5 21.5,0.5 35.5,-14.5 l 327,-322 q 15,-14 15,-35 0,-21 -15,-35 L 854,255 q -15,-14 -36,-14 -21,0 -35,14 L 458,580 388,650 -3,1041 q -14,15 -14,35.5 z"
         id="path3829"
         style="fill:#fdf6e3;fill-opacity:1" />
    </g>
  </g>
</svg>
