<?xml version="1.0" encoding="UTF-8" standalone="no"?>
<!-- Created with Inkscape (http://www.inkscape.org/) -->

<svg
   xmlns:dc="http://purl.org/dc/elements/1.1/"
   xmlns:cc="http://creativecommons.org/ns#"
   xmlns:rdf="http://www.w3.org/1999/02/22-rdf-syntax-ns#"
   xmlns:svg="http://www.w3.org/2000/svg"
   xmlns="http://www.w3.org/2000/svg"
   version="1.1"
   width="64"
   height="64"
   id="svg2985">
  <defs
     id="defs2987" />
  <metadata
     id="metadata2990">
    <rdf:RDF>
      <cc:Work
         rdf:about="">
        <dc:format>image/svg+xml</dc:format>
        <dc:type
           rdf:resource="http://purl.org/dc/dcmitype/StillImage" />
        <dc:title></dc:title>
      </cc:Work>
    </rdf:RDF>
  </metadata>
  <g
     id="layer1">
    <rect
       width="64"
       height="64"
       x="0"
       y="-1.3871627e-006"
       id="rect3009"
       style="fill:#839496;fill-opacity:1;stroke:none" />
    <g
       transform="matrix(0.02042553,0,0,-0.02042553,7.489364,56.520847)"
       id="g3799"
       style="fill:#fdf6e3;fill-opacity:1">
      <path
         d="m 25,1426 q 0,193 75.5,368.5 Q 176,1970 303,2097 q 127,127 303,202.5 176,75.5 369,75.5 193,0 368.5,-75.5 Q 1519,2224 1646,2097 1773,1970 1848.5,1794.5 1924,1619 1924,1426 q 0,-278 -152,-514 l 588,-588 q 15,-14 15,-35 0,-21 -15,-36 L 2147,40 Q 2133,26 2111.5,26 2090,26 2076,40 L 1488,628 Q 1254,476 975,476 782,476 606,551.5 430,627 303,754 176,881 100.5,1057 25,1233 25,1426 z m 302,0 q 0,-132 51.5,-252 Q 430,1054 517,967.5 604,881 723.5,829.5 843,778 975,778 q 132,0 251.5,51.5 119.5,51.5 206.5,138 87,86.5 138.5,206.5 51.5,120 51.5,252 0,131 -51.5,251 -51.5,120 -138.5,206.5 -87,86.5 -206.5,138 Q 1107,2073 975,2073 843,2073 723.5,2021.5 604,1970 517,1883.5 430,1797 378.5,1677 327,1557 327,1426 z"
         id="path3801"
         style="fill:#fdf6e3;fill-opacity:1" />
    </g>
  </g>
</svg>
