<?xml version="1.0" encoding="UTF-8" standalone="no"?>
<!-- Created with Inkscape (http://www.inkscape.org/) -->

<svg
   xmlns:dc="http://purl.org/dc/elements/1.1/"
   xmlns:cc="http://creativecommons.org/ns#"
   xmlns:rdf="http://www.w3.org/1999/02/22-rdf-syntax-ns#"
   xmlns:svg="http://www.w3.org/2000/svg"
   xmlns="http://www.w3.org/2000/svg"
   version="1.1"
   width="64"
   height="64"
   id="svg2985">
  <defs
     id="defs2987" />
  <metadata
     id="metadata2990">
    <rdf:RDF>
      <cc:Work
         rdf:about="">
        <dc:format>image/svg+xml</dc:format>
        <dc:type
           rdf:resource="http://purl.org/dc/dcmitype/StillImage" />
        <dc:title></dc:title>
      </cc:Work>
    </rdf:RDF>
  </metadata>
  <g
     id="layer1">
    <rect
       width="64"
       height="64"
       x="0"
       y="-1.3871627e-006"
       id="rect3009"
       style="fill:#b58900;fill-opacity:1;stroke:none" />
    <g
       transform="matrix(0.01371429,0,0,-0.01371429,16.228566,47.099432)"
       id="g3869"
       style="fill:#fdf6e3;fill-opacity:1">
      <path
         d="m -600,423 v 174 q 0,51 22,80 22,29 69,55 3,2 49,30 46,28 94,56 48,28 111.5,62 63.5,34 131,64 Q -56,974 0,991 v 262 q -29,9 -48.5,22 -19.5,13 -30,24.5 -10.5,11.5 -15,32 -4.5,20.5 -5.5,34.5 -1,14 -1,43 v 178 q 0,138 75.5,225.5 Q 51,1900 200,1900 349,1900 424.5,1812.5 500,1725 500,1587 v -178 q 0,-29 -1,-42.5 -1,-13.5 -5.5,-34 -4.5,-20.5 -15,-32 Q 468,1289 448.5,1276 429,1263 400,1254 V 991 Q 480,966 585,915 378,811 40,618 L 26,610 Q -110,533 -139,400 h -442 q -8,0 -13.5,7.5 -5.5,7.5 -5.5,15.5 z M 0,35 V 285 Q 0,365 20.5,405.5 41,446 100,479 581,757 800,852 v 376 q -100,74 -100,224 v 298 q 0,126 48.5,226 48.5,100 152.5,162 104,62 249,62 145,0 249,-62 104,-62 152.5,-162 48.5,-100 48.5,-226 v -298 q 0,-149 -100,-223 V 852 q 186,-76 700,-373 59,-33 79.5,-73.5 Q 2300,365 2300,285 V 35 q 0,-11 -8,-22 -8,-11 -19,-11 H 27 Q 16,2 8,13 0,24 0,35 z m 1717,881 q 112,54 183,75 v 262 q -29,9 -48.5,22 -19.5,13 -30,24.5 -10.5,11.5 -15,32 -4.5,20.5 -5.5,34.5 -1,14 -1,43 v 178 q 0,138 75.5,225.5 75.5,87.5 224.5,87.5 149,0 224.5,-87.5 Q 2400,1725 2400,1587 v -178 q 0,-29 -1,-42.5 -1,-13.5 -5.5,-34 -4.5,-20.5 -15,-32 -10.5,-11.5 -30,-24.5 -19.5,-13 -48.5,-22 V 991 q 56,-17 123.5,-47 67.5,-30 131,-64 63.5,-34 111.5,-62 48,-28 94,-56 46,-28 49,-30 47,-26 69,-55 22,-29 22,-80 V 423 q 0,-8 -5.5,-15.5 Q 2889,400 2881,400 h -442 q -31,134 -165,210 l -36,20 q -316,184 -521,286 z"
         id="path3871"
         style="fill:#fdf6e3;fill-opacity:1" />
    </g>
  </g>
</svg>
